<mxfile host="Electron" modified="2024-04-21T01:15:17.307Z" agent="Mozilla/5.0 (Windows NT 10.0; Win64; x64) AppleWebKit/537.36 (KHTML, like Gecko) draw.io/24.2.5 Chrome/120.0.6099.109 Electron/28.1.0 Safari/537.36" etag="K_LudegCuPC5_7bS1IkB" version="24.2.5" type="device">
  <diagram name="Page-1" id="QweqV-zDsetOXZZ02Blr">
    <mxGraphModel dx="956" dy="557" grid="1" gridSize="10" guides="1" tooltips="1" connect="1" arrows="1" fold="1" page="1" pageScale="1" pageWidth="3300" pageHeight="2339" math="0" shadow="0">
      <root>
        <mxCell id="0" />
        <mxCell id="1" parent="0" />
        <mxCell id="sNT2-QqbuUwA5rWDSVuH-5" style="edgeStyle=orthogonalEdgeStyle;rounded=0;orthogonalLoop=1;jettySize=auto;html=1;entryX=0.5;entryY=0;entryDx=0;entryDy=0;dashed=1;strokeWidth=2;jumpStyle=none;sketch=1;curveFitting=1;jiggle=2;" edge="1" parent="1" source="sNT2-QqbuUwA5rWDSVuH-2" target="sNT2-QqbuUwA5rWDSVuH-3">
          <mxGeometry relative="1" as="geometry" />
        </mxCell>
        <mxCell id="sNT2-QqbuUwA5rWDSVuH-2" value="Nie chcę być sam teraz" style="ellipse;whiteSpace=wrap;html=1;sketch=1;curveFitting=1;jiggle=2;" vertex="1" parent="1">
          <mxGeometry x="480" y="240" width="120" height="80" as="geometry" />
        </mxCell>
        <mxCell id="sNT2-QqbuUwA5rWDSVuH-12" style="edgeStyle=orthogonalEdgeStyle;rounded=0;sketch=1;jiggle=2;curveFitting=1;jumpStyle=none;orthogonalLoop=1;jettySize=auto;html=1;strokeColor=default;strokeWidth=2;align=center;verticalAlign=middle;fontFamily=Helvetica;fontSize=12;fontColor=default;labelBackgroundColor=default;endArrow=classic;" edge="1" parent="1" source="sNT2-QqbuUwA5rWDSVuH-3" target="sNT2-QqbuUwA5rWDSVuH-7">
          <mxGeometry relative="1" as="geometry" />
        </mxCell>
        <mxCell id="sNT2-QqbuUwA5rWDSVuH-3" value="Chcę być z Martyną teraz" style="ellipse;whiteSpace=wrap;html=1;sketch=1;curveFitting=1;jiggle=2;" vertex="1" parent="1">
          <mxGeometry x="480" y="400" width="120" height="80" as="geometry" />
        </mxCell>
        <mxCell id="sNT2-QqbuUwA5rWDSVuH-13" style="edgeStyle=orthogonalEdgeStyle;rounded=0;sketch=1;jiggle=2;curveFitting=1;jumpStyle=none;orthogonalLoop=1;jettySize=auto;html=1;strokeColor=default;strokeWidth=2;align=center;verticalAlign=middle;fontFamily=Helvetica;fontSize=12;fontColor=default;labelBackgroundColor=default;endArrow=classic;" edge="1" parent="1" source="sNT2-QqbuUwA5rWDSVuH-6" target="sNT2-QqbuUwA5rWDSVuH-7">
          <mxGeometry relative="1" as="geometry" />
        </mxCell>
        <mxCell id="sNT2-QqbuUwA5rWDSVuH-6" value="Nie chcę Martyny za żonę" style="ellipse;whiteSpace=wrap;html=1;sketch=1;jiggle=2;curveFitting=1;strokeColor=default;align=center;verticalAlign=middle;fillColor=default;fontSize=12;" vertex="1" parent="1">
          <mxGeometry x="680" y="400" width="120" height="80" as="geometry" />
        </mxCell>
        <mxCell id="sNT2-QqbuUwA5rWDSVuH-7" value="Kiedyś będziemy musieli się rozstać" style="ellipse;whiteSpace=wrap;html=1;sketch=1;jiggle=2;curveFitting=1;strokeColor=default;align=center;verticalAlign=middle;fontFamily=Helvetica;fontSize=12;fontColor=default;fillColor=default;" vertex="1" parent="1">
          <mxGeometry x="580" y="560" width="120" height="80" as="geometry" />
        </mxCell>
        <mxCell id="sNT2-QqbuUwA5rWDSVuH-14" value="Nie chcę niszczyć związku Kacprowi" style="ellipse;whiteSpace=wrap;html=1;sketch=1;jiggle=2;curveFitting=1;strokeColor=default;align=center;verticalAlign=middle;fontFamily=Helvetica;fontSize=12;fontColor=default;labelBackgroundColor=none;fillColor=default;" vertex="1" parent="1">
          <mxGeometry x="320" y="560" width="120" height="80" as="geometry" />
        </mxCell>
        <mxCell id="sNT2-QqbuUwA5rWDSVuH-17" value="" style="rounded=1;whiteSpace=wrap;html=1;sketch=1;jiggle=2;curveFitting=1;strokeColor=default;align=center;verticalAlign=middle;fontFamily=Helvetica;fontSize=12;fontColor=default;labelBackgroundColor=none;fillColor=default;" vertex="1" parent="1">
          <mxGeometry x="1200" y="210" width="120" height="60" as="geometry" />
        </mxCell>
      </root>
    </mxGraphModel>
  </diagram>
</mxfile>
